<svg width="137" height="48" viewBox="0 0 137 48" fill="none" xmlns="http://www.w3.org/2000/svg">
<path fill-rule="evenodd" clip-rule="evenodd" d="M73.3332 16.046H66.4874L67.5401 11.8916H65.1093L62.3945 22.5976H64.8285L65.8812 18.4432H72.7717L71.719 22.5976H74.153L76.8677 11.8916H74.4337L73.381 16.046H73.3332Z" fill="#0C0C0C"/>
<path fill-rule="evenodd" clip-rule="evenodd" d="M79.2665 11.8916L76.5518 22.5976H88.3102L88.9195 20.2004H79.5919L80.0385 18.4432H89.4012L90.0105 16.046H80.6478C80.7945 15.4592 80.9444 14.8756 81.0912 14.2888H90.4157L91.025 11.8916H79.2665Z" fill="#0C0C0C"/>
<path fill-rule="evenodd" clip-rule="evenodd" d="M96.1871 15.0561L95.3163 18.5076C95.1764 18.9871 95.1523 19.4921 95.2459 19.9824C95.3395 20.4727 95.5482 20.9347 95.8554 21.3316C96.2804 21.8919 96.8796 22.3006 97.562 22.4957C97.8537 22.5768 98.1554 22.6179 98.4584 22.6181H102.532C103.506 22.619 104.455 22.3085 105.234 21.7333C106.006 21.1626 106.566 20.3592 106.829 19.4458C106.899 19.1729 106.998 18.8183 107.107 18.448C107.426 17.3216 107.831 15.8939 107.831 15.1252C107.831 14.7032 107.746 14.2854 107.582 13.8956C107.418 13.5058 107.177 13.1516 106.874 12.8532C106.571 12.5548 106.211 12.3182 105.814 12.1567C105.418 11.9952 104.993 11.9121 104.564 11.9121C103.665 11.9121 102.762 11.9121 101.859 11.9121H100.51C99.5313 11.9141 98.5796 12.2254 97.7949 12.8001C97.0167 13.3647 96.4485 14.165 96.1776 15.0781L96.1871 15.0561ZM98.2479 16.5371C98.3085 16.3238 98.3627 16.1324 98.4042 15.9724C98.5649 15.4344 98.9012 14.9636 99.3612 14.6325C99.8221 14.2948 100.381 14.1121 100.956 14.1117H101.722C102.235 14.1117 102.749 14.1117 103.256 14.1117C103.512 14.1113 103.766 14.1606 104.002 14.2568C104.239 14.3531 104.453 14.4943 104.634 14.6725C104.815 14.8506 104.958 15.0621 105.056 15.2949C105.153 15.5277 105.203 15.7771 105.202 16.0288C105.133 16.6784 104.994 17.3189 104.787 17.9397C104.727 18.1531 104.673 18.3476 104.634 18.5045C104.476 19.046 104.139 19.5205 103.677 19.8537C103.217 20.1921 102.657 20.3748 102.082 20.3746H99.7696C99.2526 20.3746 98.7569 20.1726 98.3913 19.8131C98.0258 19.4535 97.8204 18.9659 97.8204 18.4574C97.8934 17.8043 98.0367 17.1605 98.2479 16.5371Z" fill="#0C0C0C"/>
<path fill-rule="evenodd" clip-rule="evenodd" d="M124.571 11.8916L121.856 22.5976H133.615L134.221 20.2004H124.897C125.046 19.6136 125.193 19.03 125.343 18.4432H134.719L135.328 16.046H125.949C126.099 15.4592 126.246 14.8756 126.396 14.2888H135.72L136.326 11.8916H124.571Z" fill="#0C0C0C"/>
<path fill-rule="evenodd" clip-rule="evenodd" d="M63.655 11.8916H56.5699C55.9689 12.7161 55.1663 13.3783 54.2363 13.817C53.3063 14.2557 52.2789 14.4569 51.2489 14.4018L50.6396 16.8147C51.5852 16.8853 52.5356 16.859 53.4756 16.7363C54.1535 16.6713 54.8077 16.4568 55.3896 16.1087L55.5204 16.0146L53.8743 22.6039H56.3084C56.3945 22.2524 56.9145 20.169 57.4727 17.9443C57.7917 16.6892 58.1107 15.4059 58.3819 14.339V14.2951H63.0393L63.655 11.8916Z" fill="#0C0C0C"/>
<path fill-rule="evenodd" clip-rule="evenodd" d="M110.471 11.8916L107.76 22.5976H110.191L112.207 14.6497L117.04 22.5976H119.515L122.23 11.8916H119.796L117.783 19.8426L112.947 11.8916H110.471Z" fill="#0C0C0C"/>
<path fill-rule="evenodd" clip-rule="evenodd" d="M84.6915 27.7075C84.8456 27.7108 84.9954 27.7578 85.1232 27.8429C85.251 27.9281 85.3513 28.0478 85.4122 28.1877C85.4594 28.3096 85.4768 28.4408 85.463 28.5706C85.4517 28.7025 85.4162 28.8312 85.3582 28.9504C85.2938 29.0994 85.188 29.2273 85.0532 29.3195C84.9184 29.4117 84.76 29.4643 84.5963 29.4714H78.415C78.5611 28.8813 78.7103 28.2944 78.8595 27.7044C80.5231 27.7044 83.1422 27.5474 84.6915 27.7044V27.7075ZM86.1519 36.0468C86.2154 35.7957 86.2884 35.5384 86.3614 35.281C86.7297 34.0004 87.117 32.6477 86.5265 31.455L86.5043 31.4111L86.5456 31.3828C87.2393 30.8435 87.7191 30.0803 87.9012 29.2266C88.0545 28.609 88.0632 27.9649 87.9266 27.3434C87.8055 26.758 87.4891 26.2297 87.0281 25.8432C86.5464 25.4734 85.9487 25.2824 85.3392 25.3033H81.1644H77.0372L74.3291 36.05H76.7578L77.8086 31.8787H82.1327C82.3728 31.8782 82.6116 31.9142 82.8406 31.9854C83.2345 32.1035 83.5831 32.3366 83.8407 32.654C84.0949 32.9708 84.2326 33.3637 84.2312 33.7682C84.2299 33.9747 84.1978 34.1798 84.1359 34.3771L83.7137 36.05L86.1519 36.0468Z" fill="#2757FC"/>
<path d="M91.8278 28.9851L96.232 25.3018H100.072L93.6169 30.7676L98.1532 36.05H95.0498L91.1077 31.8654L90.0953 36.05H87.6606L90.3485 25.3018H92.833L91.8278 28.9851Z" fill="#2757FC"/>
<path fill-rule="evenodd" clip-rule="evenodd" d="M101.628 25.3018L98.9399 36.05H110.582L111.182 33.6433H101.95C102.098 33.0542 102.244 32.4683 102.392 31.8792H111.675L112.278 29.4725H102.992C103.141 28.8834 103.286 28.2975 103.434 27.7084H112.667L113.267 25.3018H101.628Z" fill="#2757FC"/>
<path d="M118.927 25.3018H125.942L125.332 27.7133H120.721V27.7574C120.452 28.8278 120.136 30.1155 119.82 31.3748C119.268 33.6069 118.753 35.6973 118.668 36.05H116.258L117.888 29.4386L118.301 27.7133L113.794 27.6979L114.459 25.3018H118.927Z" fill="#2757FC"/>
<path d="M46.6055 36.05L49.1304 25.3018H52.9601L54.364 32.58L58.8642 25.3018H62.5942L60.0867 36.05H57.5019L59.2864 28.8938L54.8357 36.05H52.3234L50.9933 28.7181L49.146 36.05H46.6055Z" fill="#2757FC"/>
<path d="M67.4967 25.3672H71.4751L73.3825 36.0487H70.779L70.619 34.2014H64.7034L63.5712 36.0487H60.9194L67.4967 25.3672ZM65.9101 32.2498H70.2391L69.4942 27.7508H68.5767L65.9101 32.2498Z" fill="#2757FC"/>
<path d="M24.4045 1.78009L24.4053 1.78046L35.5835 6.85471C35.5852 6.85548 35.587 6.85626 35.5887 6.85704C35.7419 6.92558 35.8761 7.02389 35.986 7.14226C36.097 7.26183 36.1816 7.40003 36.2385 7.54705C36.2954 7.69403 36.3244 7.84941 36.3255 8.0049C36.3267 8.15826 36.3007 8.31185 36.2477 8.45774L33.1996 17.0294C33.1993 17.0303 33.199 17.0312 33.1987 17.0322C33.1256 17.2396 32.9981 17.4314 32.8207 17.5801C32.776 17.6176 32.7286 17.6519 32.6789 17.6827L34.2587 17.6968C34.2598 17.6968 34.2609 17.6968 34.262 17.6968L34.2637 17.6968L34.2561 18.555C34.332 18.5553 34.4061 18.5813 34.468 18.6295C34.53 18.6777 34.5768 18.7458 34.6022 18.8244L24.4045 1.78009ZM24.4045 1.78009C24.1851 1.6808 23.9452 1.63303 23.7022 1.64304C23.4592 1.65306 23.2245 1.72034 23.0146 1.83629L23.0137 1.83678L1.79339 13.5907C1.50592 13.7475 1.30515 14.0064 1.20878 14.2941C1.11257 14.5813 1.11991 14.8956 1.2308 15.1787L3.23026 20.3655C3.32184 20.607 3.48818 20.8249 3.71932 20.9745C3.95265 21.1255 4.23418 21.1944 4.51866 21.1593L9.12278 20.6146L7.19835 26.6375C7.19804 26.6384 7.19774 26.6393 7.19744 26.6403C7.13663 26.8285 7.12006 27.028 7.14773 27.2223C7.17553 27.4177 7.24812 27.6081 7.36466 27.7753L8.06876 27.2845L7.36466 27.7753C7.48144 27.9428 7.64071 28.0843 7.83366 28.1788L7.83368 28.1788C8.02475 28.2724 8.23871 28.3147 8.45483 28.2977L10.6216 28.1455L11.1537 33.3476L24.4045 1.78009ZM30.4775 28.6541C30.383 28.4245 30.2205 28.2185 29.9992 28.0752L29.995 28.0725L28.1781 26.9103L36.4061 26.3305L17.939 45.4202M30.4775 28.6541L29.6839 28.9807L30.4775 28.6541C30.4775 28.6541 30.4775 28.6541 30.4775 28.6541ZM30.4775 28.6541C30.5719 28.8833 30.598 29.134 30.556 29.3752L30.5552 29.3795L29.6055 34.6704L28.7595 34.5265L29.6041 34.6782L29.6047 34.6752C29.5551 34.9603 29.4089 35.2326 29.173 35.4307C28.9348 35.6306 28.6234 35.7375 28.2989 35.7107L28.3019 35.7109L28.3679 34.8552L28.2923 35.7101L24.8599 35.4455L18.9953 45.655C18.995 45.6555 18.9947 45.656 18.9944 45.6566C18.8932 45.8337 18.7476 45.9892 18.5643 46.1013C18.3799 46.2141 18.166 46.2773 17.9434 46.2785M17.9434 46.2785L17.939 45.4202M17.9434 46.2785L17.9439 46.2785L17.939 45.4202M17.9434 46.2785L13.1978 46.3054M17.939 45.4202L13.1872 45.4472M13.1978 46.3054C13.2013 46.3053 13.2048 46.3053 13.2083 46.3052L13.1872 45.4472M13.1978 46.3054L13.1921 46.3054L13.1872 45.4472M13.1978 46.3054C13.0025 46.3085 12.8119 46.2636 12.6409 46.1777C12.4672 46.0906 12.3212 45.9651 12.2096 45.8169C12.0981 45.6689 12.0224 45.5004 11.9835 45.3254C11.9446 45.1504 11.9424 44.9689 11.9768 44.7932L11.9787 44.7836L11.9807 44.7741L14.0359 35.4168C14.0778 35.2009 14.1751 34.9936 14.3259 34.8208C14.379 34.7599 14.4382 34.704 14.5028 34.6542L12.2935 34.4818C12.2916 34.4816 12.2896 34.4815 12.2876 34.4813C11.977 34.4588 11.6985 34.3173 11.4963 34.1041C11.4963 34.1041 11.4963 34.1041 11.4963 34.1041L12.119 33.5135C12.0561 33.4472 12.0167 33.3584 12.0078 33.2631L13.1872 45.4472M37.4829 24.638L35.4164 18.553L36.3497 25.474C36.4082 25.4707 36.4651 25.4521 36.5157 25.4198C36.5663 25.3875 36.6092 25.3424 36.6407 25.2883L37.3822 25.7206C37.3822 25.7206 37.3822 25.7206 37.3822 25.7206C37.4793 25.554 37.5361 25.3695 37.5523 25.1824C37.568 24.9992 37.545 24.8132 37.4829 24.638Z" fill="white" stroke="white" stroke-width="1.71653"/>
<path d="M36.6725 24.9205L34.6022 18.8244C34.5768 18.7458 34.53 18.6777 34.468 18.6295C34.4061 18.5813 34.332 18.5553 34.2561 18.555L20.132 18.4298L32.0827 17.0034C32.1505 16.9959 32.2151 16.9679 32.2693 16.9225C32.3234 16.877 32.3651 16.816 32.3895 16.7461L35.4404 8.16641C35.4585 8.11716 35.4677 8.06445 35.4673 8.0113C35.4669 7.95816 35.457 7.90562 35.438 7.85671C35.4191 7.80779 35.3916 7.76344 35.357 7.72622C35.3225 7.68899 35.2816 7.65962 35.2366 7.63977L24.0505 2.56197C23.9514 2.5171 23.8447 2.49616 23.7375 2.50058C23.6304 2.50499 23.5253 2.53466 23.4296 2.58756L2.20604 14.3433C2.12099 14.3891 2.05529 14.4691 2.02261 14.5666C1.98992 14.6642 1.99277 14.7719 2.03055 14.8672L4.03214 20.0595C4.06264 20.141 4.11655 20.2093 4.18567 20.254C4.25478 20.2987 4.33533 20.3175 4.41504 20.3073L10.3462 19.6056L8.01447 26.9031C7.9938 26.9666 7.98794 27.0348 7.99742 27.1014C8.00691 27.168 8.03143 27.231 8.06876 27.2845C8.10609 27.3381 8.15505 27.3805 8.21115 27.408C8.26726 27.4355 8.32875 27.4471 8.39 27.4418L11.4004 27.2304C11.3967 27.2617 11.3967 27.2934 11.4004 27.3247L12.0078 33.2631C12.0167 33.3584 12.0561 33.4472 12.119 33.5135C12.182 33.5799 12.2643 33.6196 12.3515 33.6254L19.257 34.1642L15.1532 35.2714C15.0843 35.2894 15.0216 35.3288 14.9726 35.385C14.9237 35.4411 14.8905 35.5116 14.8771 35.5879L12.819 44.9582C12.8073 45.0179 12.8081 45.0797 12.8213 45.139C12.8345 45.1983 12.8597 45.2536 12.8952 45.3006C12.9306 45.3477 12.9753 45.3853 13.0259 45.4107C13.0764 45.436 13.1316 45.4485 13.1872 45.4472L17.939 45.4202C18.0011 45.4199 18.0622 45.4023 18.1165 45.3691C18.1708 45.3359 18.2165 45.2882 18.2495 45.2303L24.3856 34.5481L28.3679 34.8552C28.4586 34.8632 28.5488 34.834 28.6211 34.7733C28.6934 34.7127 28.7427 34.6247 28.7594 34.5265L29.7105 29.2278C29.725 29.1444 29.7157 29.0581 29.6839 28.9807C29.652 28.9033 29.5992 28.8386 29.5325 28.7955L25.5318 26.2364L36.3497 25.474C36.4082 25.4707 36.4651 25.4521 36.5157 25.4198C36.5663 25.3875 36.6092 25.3424 36.6407 25.2883C36.6723 25.2342 36.6916 25.1726 36.6972 25.1086C36.7027 25.0446 36.6942 24.9801 36.6725 24.9205Z" fill="url(#paint0_linear_2313_14465)"/>
<defs>
<linearGradient id="paint0_linear_2313_14465" x1="45.0641" y1="16.9179" x2="-2.48921" y2="26.8919" gradientUnits="userSpaceOnUse">
<stop stop-color="#FEB4FF"/>
<stop offset="1" stop-color="#2757FC"/>
</linearGradient>
</defs>
</svg>
